<mxfile host="app.diagrams.net" agent="Mozilla/5.0 (X11; Ubuntu; Linux x86_64; rv:133.0) Gecko/20100101 Firefox/133.0" version="25.0.3">
  <diagram name="Page-1" id="0kU-9hBIHeohd03Ha4We">
    <mxGraphModel dx="1996" dy="626" grid="1" gridSize="10" guides="1" tooltips="1" connect="1" arrows="1" fold="1" page="0" pageScale="1" pageWidth="800" pageHeight="1200" math="0" shadow="0">
      <root>
        <mxCell id="0" />
        <mxCell id="1" parent="0" />
        <mxCell id="lUdtwEhFdtQp0Rw-kaZU-16" value="Prototype" style="shape=umlFrame;whiteSpace=wrap;html=1;pointerEvents=0;recursiveResize=0;container=1;collapsible=0;width=160;fillColor=#eeeeee;strokeColor=#36393d;strokeWidth=2;fontStyle=1" parent="1" vertex="1">
          <mxGeometry x="-80" y="210" width="760" height="190" as="geometry" />
        </mxCell>
        <mxCell id="dJwQB-yzZtZYFshqU6A6-2" value="Substation" style="rounded=0;whiteSpace=wrap;html=1;fontStyle=1;movable=1;resizable=1;rotatable=1;deletable=1;editable=1;locked=0;connectable=1;" vertex="1" parent="lUdtwEhFdtQp0Rw-kaZU-16">
          <mxGeometry x="40" y="60" width="120" height="60" as="geometry" />
        </mxCell>
        <mxCell id="lUdtwEhFdtQp0Rw-kaZU-6" value="MQTT" style="edgeStyle=orthogonalEdgeStyle;rounded=0;orthogonalLoop=1;jettySize=auto;html=1;entryX=0;entryY=0.5;entryDx=0;entryDy=0;" parent="1" source="lUdtwEhFdtQp0Rw-kaZU-2" target="lUdtwEhFdtQp0Rw-kaZU-5" edge="1">
          <mxGeometry relative="1" as="geometry" />
        </mxCell>
        <mxCell id="lUdtwEhFdtQp0Rw-kaZU-2" value="Mosquitto" style="shape=cylinder3;whiteSpace=wrap;html=1;boundedLbl=1;backgroundOutline=1;size=15;rotation=90;horizontal=0;fontStyle=1" parent="1" vertex="1">
          <mxGeometry x="381.25" y="241.25" width="40" height="117.5" as="geometry" />
        </mxCell>
        <mxCell id="lUdtwEhFdtQp0Rw-kaZU-3" value="Adapter" style="rounded=0;whiteSpace=wrap;html=1;fontStyle=1" parent="1" vertex="1">
          <mxGeometry x="160" y="270" width="120" height="60" as="geometry" />
        </mxCell>
        <mxCell id="lUdtwEhFdtQp0Rw-kaZU-4" style="edgeStyle=orthogonalEdgeStyle;rounded=0;orthogonalLoop=1;jettySize=auto;html=1;exitX=1;exitY=0.5;exitDx=0;exitDy=0;entryX=0.5;entryY=1;entryDx=0;entryDy=0;entryPerimeter=0;" parent="1" source="lUdtwEhFdtQp0Rw-kaZU-3" target="lUdtwEhFdtQp0Rw-kaZU-2" edge="1">
          <mxGeometry relative="1" as="geometry" />
        </mxCell>
        <mxCell id="dJwQB-yzZtZYFshqU6A6-1" value="MQTT" style="edgeLabel;html=1;align=center;verticalAlign=middle;resizable=0;points=[];fontSize=12;" vertex="1" connectable="0" parent="lUdtwEhFdtQp0Rw-kaZU-4">
          <mxGeometry x="-0.0687" relative="1" as="geometry">
            <mxPoint as="offset" />
          </mxGeometry>
        </mxCell>
        <mxCell id="lUdtwEhFdtQp0Rw-kaZU-5" value="Grafana" style="rounded=0;whiteSpace=wrap;html=1;fontStyle=1" parent="1" vertex="1">
          <mxGeometry x="520" y="270" width="120" height="60" as="geometry" />
        </mxCell>
        <mxCell id="dJwQB-yzZtZYFshqU6A6-3" value="" style="edgeStyle=none;curved=1;rounded=0;orthogonalLoop=1;jettySize=auto;html=1;fontSize=12;startSize=8;endSize=8;" edge="1" parent="1" source="dJwQB-yzZtZYFshqU6A6-2" target="lUdtwEhFdtQp0Rw-kaZU-3">
          <mxGeometry relative="1" as="geometry" />
        </mxCell>
        <mxCell id="dJwQB-yzZtZYFshqU6A6-4" value="&lt;div&gt;IEC&lt;/div&gt;&lt;div&gt;61850&lt;/div&gt;" style="edgeLabel;html=1;align=center;verticalAlign=middle;resizable=0;points=[];fontSize=12;" vertex="1" connectable="0" parent="dJwQB-yzZtZYFshqU6A6-3">
          <mxGeometry x="-0.0851" relative="1" as="geometry">
            <mxPoint as="offset" />
          </mxGeometry>
        </mxCell>
      </root>
    </mxGraphModel>
  </diagram>
</mxfile>
